<svg height="472" viewBox="0 0 450.01 84.88" width="2500" xmlns="http://www.w3.org/2000/svg"><path d="m9.48 0h67.78c6.28.23 10 5.46 11.27 11.09 6.52-3.45 13-7 19.54-10.35q.06 8.35 0 16.73c-15.59 8.59-31.61 16.41-47.13 25.13 15.82 8 31.49 16.23 47.13 24.56v16.87c-6.58-3.39-13.18-6.77-19.64-10.39-1.11 5.19-4.08 9.95-9.56 11.24h-70.05a14 14 0 0 1 -8.82-7.6v-20c9.46-5 19-9.74 28.4-15-9.51-4.72-19-9.49-28.4-14.45v-18.8a11 11 0 0 1 9.48-9m.12 16.14c11.82 5.54 23.27 11.71 34.79 17.81 11.58-5.89 23-11.95 34.52-18-23.1.09-46.21-.28-69.31.21m.28 52.72c23 .23 46 0 69 .12-11.25-6.4-22.92-12-34.27-18.19q-17.36 9.07-34.76 18.07m136.56-57.05c12.31-9 29.09-8.18 42.58-2.42.2 4.39.25 8.79.29 13.19-10.28-5-23.61-8.33-33.69-1.16-10 6.52-10.17 23.32-.06 29.79 10.08 7.17 23.58 4.3 33.71-1.2v13.11c-13.92 6.54-31.88 6.81-44.24-3.19-14.7-11.69-14.06-37.38 1.41-48.12m171.47 1.79c12.29-10.84 30.91-10.63 45.13-3.84q-.06 6.52 0 13c-9.9-5.27-22.65-8.1-32.88-2.07s-11.56 22.3-2.13 29.62c10 8.4 24.39 5.1 35-.24 0 4.38 0 8.77-.07 13.17-13.74 6-31 6.86-43.39-2.63-14.65-10.81-15.5-35.23-1.63-47m103.81 8.6 11.78-6.47v8.56h16.39v9.53h-16.36c.3 6.61-.89 13.47.74 19.94 3.06 5.89 10.56 4 15.74 2.8-.14 3.36-.23 6.74-.35 10.1-6.62 1.09-13.83 2.28-20.06-1-4.9-2.13-7.83-7.43-7.8-12.67-.19-10.25.07-20.51-.07-30.77m-217.4 5.23c8.13-6.47 20.86-5.21 28 2.23-.09-1.09-.25-3.27-.32-4.35h12v41.38l-11.85-.05v-4.79c-6.61 6.45-17.15 7.73-25.36 3.73-13.3-7.48-14.48-28.93-2.49-38.15m11.83 6.37c-8.92 2.87-10.49 16.43-3.08 21.79 7.06 5.3 18.87 1.06 19.61-8.15 1.89-9.08-8-17.12-16.53-13.64m48.33-3.68c6-6.13 15.48-8.79 23.58-5.37 13.56 5.39 16.53 25 7.79 35.77-7.37 9.41-22.86 9.59-31.17 1.33.23 7.66.16 15.3.16 22.95h-11.94v-59.49h11.7c0 1.2-.1 3.61-.14 4.79m6.58 4c-9 3.7-9.44 18.46-.5 22.48 7.61 4.21 18.38-1.5 17.76-10.58 1.08-9-9.27-15.77-17.26-11.9m99.04-9.74c3.89-.07 7.79-.09 11.69-.14.26 9-.55 18 .4 27 1.68 9 17.51 9.21 19.21.11.74-9 .07-18 .3-26.94 3.89-.05 7.8-.05 11.69-.05 0 9 .09 18 0 27a14.24 14.24 0 0 1 -8.56 13.77 31.93 31.93 0 0 1 -27.42-.63c-4.78-2.43-7.29-7.93-7.33-13.11-.17-9 0-18 0-27" fill="#16161d"/></svg>