<svg xmlns="http://www.w3.org/2000/svg"  viewBox="0 0 64 64" width="64px" height="64px"><linearGradient id="oOunTjpi21K8BkKwlrXAua" x1="32" x2="32" y1="6" y2="12" gradientUnits="userSpaceOnUse" spreadMethod="reflect"><stop offset="0" stop-color="#6dc7ff"/><stop offset="1" stop-color="#e6abff"/></linearGradient><path fill="url(#oOunTjpi21K8BkKwlrXAua)" d="M21,6h22c1.657,0,3,1.343,3,3v3H18V9C18,7.343,19.343,6,21,6z"/><linearGradient id="oOunTjpi21K8BkKwlrXAub" x1="32" x2="32" y1="14" y2="58" gradientUnits="userSpaceOnUse" spreadMethod="reflect"><stop offset="0" stop-color="#1a6dff"/><stop offset="1" stop-color="#c822ff"/></linearGradient><path fill="none" stroke="url(#oOunTjpi21K8BkKwlrXAub)" stroke-miterlimit="10" stroke-width="2" d="M45,27V15H19v12.072 c0,2.26,1.338,4.257,3.478,5.114L39,38.352v2.394l-7.135,5.958L25,41.753V37h-6v5c0,1.762,0.844,3.426,2.265,4.457L29,52.035V54 c0,1.657,1.343,3,3,3s3-1.343,3-3v-2.097l7.839-6.546C44.194,44.328,45,42.701,45,40.977v-2.973c0-2.257-1.337-4.253-3.478-5.114 L25,26.724V21h14v6H45z"/></svg>